Coordinates
version=1
nRows=19
nColumns=24
inDegrees=yes

Units are S.I. units (second, meters, Newtons, ...)
Angles are in degrees.

endheader
time	pelvis_tilt	pelvis_list	pelvis_rotation	pelvis_tx	pelvis_ty	pelvis_tz	hip_flexion_r	hip_adduction_r	hip_rotation_r	knee_angle_r	ankle_angle_r	subtalar_angle_r	mtp_angle_r	hip_flexion_l	hip_adduction_l	hip_rotation_l	knee_angle_l	ankle_angle_l	subtalar_angle_l	mtp_angle_l	lumbar_extension	lumbar_bending	lumbar_rotation
      1.16233333	      1.12043237	      0.62322717	      0.90679543	      0.09037071	      1.01503738	      0.31842247	     21.45715608	     -5.08832628	     -9.22805125	    -75.81178895	     -0.28062144	     -7.13769165	     -0.11468116	     11.24363963	      2.16167931	     -6.34077907	    -14.88877213	      1.20770294	    -12.59031255	     -2.09150204	    -12.70223156	     -2.61501669	     -0.83673935
      1.16650000	      1.13989319	      0.50515091	      0.96211931	      0.09521040	      1.01606687	      0.31820102	     22.09685860	     -4.90439371	     -9.18948965	    -75.72845965	      0.07938577	     -7.12479940	     -0.11966961	     10.77289940	      2.06653315	     -6.24514456	    -14.59622854	      1.31170895	    -12.55318155	     -2.09214460	    -12.74553259	     -2.46673664	     -0.87837520
      1.17066667	      1.16109818	      0.37804925	      0.97975907	      0.10000545	      1.01707112	      0.31809257	     22.72828095	     -4.69188143	     -9.11864330	    -75.58160718	      0.49408516	     -7.00577977	     -0.13792478	     10.31006226	      1.94254539	     -6.22117196	    -14.32416712	      1.40373155	    -12.44515253	     -2.09722920	    -12.81609212	     -2.31122395	     -0.96291892
      1.17483333	      1.17289553	      0.26644587	      1.01701935	      0.10481791	      1.01803649	      0.31788752	     23.34595661	     -4.51886392	     -9.08852139	    -75.36221057	      0.84427175	     -7.05426987	     -0.14672760	      9.84450454	      1.84919125	     -6.15866056	    -14.02121580	      1.48107640	    -12.40389191	     -2.10078008	    -12.86187865	     -2.15488523	     -1.00572095
      1.17900000	      1.18534971	      0.15159485	      1.04104450	      0.10965268	      1.01900303	      0.31769930	     23.93829584	     -4.34233436	     -9.06173700	    -75.06003194	      1.17334312	     -7.12159404	     -0.15769226	      9.36871621	      1.74955453	     -6.10889240	    -13.70187433	      1.55144840	    -12.35555564	     -2.10616871	    -12.90591400	     -2.00393461	     -1.05731528
      1.18316667	      1.19646418	      0.03959597	      1.06356195	      0.11449409	      1.01994445	      0.31749808	     24.50993827	     -4.17551920	     -9.04950447	    -74.68810482	      1.48056128	     -7.25315308	     -0.17054271	      8.88772417	      1.65375370	     -6.06297091	    -13.36811237	      1.61464024	    -12.30948271	     -2.11264426	    -12.94726009	     -1.85233084	     -1.10904312
      1.18733333	      1.21482337	     -0.07675703	      1.08218146	      0.11934099	      1.02087829	      0.31729096	     25.04853415	     -4.01047911	     -9.05610390	    -74.23939774	      1.76012763	     -7.44617547	     -0.18740812	      8.39365323	      1.55283353	     -6.02410167	    -13.02268242	      1.66880070	    -12.26779485	     -2.12109905	    -12.99569546	     -1.69169572	     -1.16109374
      1.19150000	      1.29613731	     -0.22458496	      1.09610037	      0.12425314	      1.02195953	      0.31707958	     25.47221553	     -3.81321053	     -9.09131729	    -73.67062686	      1.91631048	     -7.74130179	     -0.23538734	      7.81303434	      1.41417304	     -6.01320304	    -12.64655736	      1.74024970	    -12.18003790	     -2.14307233	    -13.10382184	     -1.49381098	     -1.22434262
      1.19566667	      1.33448124	     -0.34296563	      1.12361640	      0.12911636	      1.02288635	      0.31683462	     25.93042616	     -3.66367836	     -9.14057267	    -73.07009335	      2.15840761	     -8.01986495	     -0.28033384	      7.28738888	      1.31413512	     -5.96814538	    -12.27762211	      1.78141309	    -12.14972805	     -2.16291496	    -13.17318800	     -1.33288962	     -1.26470461
      1.19983333	      1.35819994	     -0.45536851	      1.15892160	      0.13399339	      1.02375553	      0.31653185	     26.37784083	     -3.53743447	     -9.21499241	    -72.40372142	      2.36433337	     -8.34998280	     -0.33016984	      6.77622292	      1.22529117	     -5.91936080	    -11.90604495	      1.82626479	    -12.12378699	     -2.18293103	    -13.22330917	     -1.15848701	     -1.32206144
      1.20400000	      1.32450880	     -0.52359927	      1.19442886	      0.13886625	      1.02444491	      0.31622120	     26.87495073	     -3.46966998	     -9.28605846	    -71.71252446	      2.66174756	     -8.63578958	     -0.35083827	      6.33203068	      1.18660789	     -5.87681746	    -11.54412290	      1.86129312	    -12.11329530	     -2.19064703	    -13.20203207	     -1.04391689	     -1.36141875
      1.20816667	      1.47693723	     -0.68837604	      1.26824372	      0.14374332	      1.02552471	      0.31584589	     27.09485048	     -3.31211821	     -9.45199138	    -70.84677289	      2.75691512	     -9.08350457	     -0.46819949	      5.67633790	      1.03959477	     -5.80403503	    -11.15343188	      1.92650187	    -12.03761637	     -2.22985872	    -13.40950572	     -0.79692055	     -1.46717029
      1.21233333	      1.44606824	     -0.78416059	      1.29048032	      0.14864030	      1.02618635	      0.31554526	     27.52663577	     -3.21562400	     -9.54617421	    -69.98927024	      2.89793780	     -9.45179880	     -0.53317386	      5.21829063	      0.97097677	     -5.76359423	    -10.76946308	      1.93747303	    -12.07124312	     -2.25091443	    -13.39376444	     -0.63272153	     -1.52835843
      1.21650000	      1.44561783	     -0.87987847	      1.33971929	      0.15354240	      1.02686477	      0.31522896	     27.88565499	     -3.13400530	     -9.68479877	    -69.05599172	      3.03928097	     -9.85430193	     -0.60738921	      4.73533144	      0.89936883	     -5.72027974	    -10.39998589	      1.96871186	    -12.07539436	     -2.27242525	    -13.40409268	     -0.48231129	     -1.60647543
      1.22066667	      1.46645351	     -0.98895978	      1.39738582	      0.15843670	      1.02754711	      0.31486909	     28.18662752	     -3.04654445	     -9.84308538	    -68.04606681	      3.15069243	    -10.26232822	     -0.69945928	      4.22834450	      0.81604681	     -5.65859691	    -10.02467504	      2.00295048	    -12.06775530	     -2.29728017	    -13.45478768	     -0.28730209	     -1.69103578
      1.22483333	      1.56555995	     -1.10865642	      1.50193129	      0.16332112	      1.02833523	      0.31444772	     28.35216514	     -2.97212945	    -10.06464811	    -66.95021583	      3.30495351	    -10.63197020	     -0.88566954	      3.64496967	      0.71843595	     -5.56838337	     -9.65855772	      2.06312949	    -12.00732607	     -2.34444220	    -13.60070677	     -0.08987404	     -1.81257152
      1.22900000	      1.50737166	     -1.17662299	      1.53137090	      0.16822371	      1.02876832	      0.31419668	     28.69837294	     -2.91358329	    -10.19225818	    -65.84039983	      3.38636117	    -10.98510176	     -0.99226672	      3.22555131	      0.67569484	     -5.52525240	     -9.29321525	      2.07988253	    -12.05110200	     -2.37095440	    -13.55567945	      0.02734776	     -1.87745895
      1.23316667	      1.51787711	     -1.26111523	      1.59514857	      0.17312266	      1.02928596	      0.31388026	     28.92191941	     -2.85606554	    -10.37241520	    -64.64355918	      3.45333760	    -11.33858760	     -1.13175286	      2.74024853	      0.61353334	     -5.46641262	     -8.93978525	      2.11949736	    -12.05702764	     -2.40391599	    -13.59061511	      0.17708800	     -1.96976647
      1.23733333	      1.59524828	     -1.34901771	      1.69323574	      0.17802024	      1.02987570	      0.31352009	     29.02733994	     -2.81181401	    -10.59877211	    -63.37328744	      3.56297481	    -11.65254790	     -1.34847117	      2.18783352	      0.54362198	     -5.39617419	     -8.58925694	      2.16784392	    -12.02072654	     -2.45408837	    -13.70547313	      0.34742734	     -2.07173465
